<svg xmlns="http://www.w3.org/2000/svg" fill-rule="evenodd" stroke-linejoin="round" stroke-miterlimit="2" clip-rule="evenodd" viewBox="0 0 64 64" id="stack"><path fill="none" d="M0 0h64v64H0z"></path><path fill="#c1d5e4" d="M11 60a.997.997 0 0 1-1-1V41a.997.997 0 0 1 1-1h3a.997.997 0 0 1 1 1v13a1 1 0 0 0 1 1h32a1 1 0 0 0 1-1V41a.997.997 0 0 1 1-1h3a.997.997 0 0 1 1 1v18a.997.997 0 0 1-1 1H11Z"></path><path fill="#9bb9c1" d="M13 40a.997.997 0 0 0-1 1v18a.997.997 0 0 0 1 1h40-42a.997.997 0 0 1-1-1V41a.997.997 0 0 1 1-1h2Zm39 0a.997.997 0 0 0-1 1v13a1 1 0 0 1-1 1h-2a1 1 0 0 0 1-1V41a.997.997 0 0 1 1-1h2Z"></path><path fill="#fcb860" d="M21 45a.997.997 0 0 0-1 1v3a1 1 0 0 0 1 1h22a.997.997 0 0 0 1-1v-3a1 1 0 0 0-1-1H21ZM43.233 4.79a.997.997 0 0 0-1.402-.18L39.455 6.44a1 1 0 0 0-.182 1.403l13.434 17.423a.997.997 0 0 0 1.402.181l2.376-1.831a1 1 0 0 0 .181-1.403L43.233 4.791ZM34.256 12.728a.997.997 0 0 0-1.406.144L30.956 15.2a1 1 0 0 0 .143 1.406l17.06 13.892a.997.997 0 0 0 1.407-.144l1.894-2.326a1 1 0 0 0-.143-1.407l-17.06-13.892ZM27.158 22.825a.997.997 0 0 0-1.333.47l-1.294 2.708a1 1 0 0 0 .471 1.333l19.851 9.486a.997.997 0 0 0 1.333-.472l1.294-2.707a1 1 0 0 0-.471-1.333l-19.851-9.485ZM22.765 33.834a.997.997 0 0 0-1.192.76l-.647 2.93a1 1 0 0 0 .76 1.192c3.813.843 17.67 3.906 21.482 4.75a.997.997 0 0 0 1.192-.761l.647-2.93a1 1 0 0 0-.76-1.192l-21.482-4.749Z"></path></svg>